# xmcd
#
# Track frame offsets: 
#        150
#        16209
#        37975
#        56697
#        74210
#        87879
#        102190
#        125663
#        144855
#        159806
#        172924
#        193060
#        210853
#        228801
#        246004
#
# Disc length: 3542 seconds
#
# Revision: 0
# Processed by: cddbd v1.5.2PL0 Copyright (c) Steve Scherf et al.
# Submitted via: ExactAudioCopy v0.99pb5
#
DISCID=bb0dd40f
DTITLE=Ray Harris - Poorly Kept Secrets
DYEAR=2012
DGENRE=Bluegrass
TTITLE0=Never Happened At All
TTITLE1=Smokin' Like A Train
TTITLE2=Take Back This Heart
TTITLE3=Thunderbird
TTITLE4=Caffeine and Mayo
TTITLE5=Mighty Lonesome Way To Live
TTITLE6=Pillar To Post
TTITLE7=Devil's Advocate
TTITLE8=Gettin' Smaller
TTITLE9=If I Knew Then
TTITLE10=She Follows Me Wherever I Go
TTITLE11=I Ain't Scared Of Nothin'
TTITLE12=Foregone Conclusion
TTITLE13=Liar Liar Liar
TTITLE14=West Virginia Coal Mine
EXTD=
EXTT0=
EXTT1=
EXTT2=
EXTT3=
EXTT4=
EXTT5=
EXTT6=
EXTT7=
EXTT8=
EXTT9=
EXTT10=
EXTT11=
EXTT12=
EXTT13=
EXTT14=
PLAYORDER=
